<svg width="457" height="164" viewBox="0 0 457 164" fill="none" xmlns="http://www.w3.org/2000/svg">
<path fill-rule="evenodd" clip-rule="evenodd" d="M136.7 0C142.5 0 150.2 0.6 154.6 1.4C158.9 2.3 165.3 4.4 168.9 6.1C172.5 7.9 177.5 11.4 180.1 14.1C182.8 16.7 186.4 21.9 188.1 25.6C191.2 32 191.4 33 191.4 43.4C191.4 53.6 191.2 54.8 185.4 66.4L178.9 66.7C172.9 67.1 172.5 66.9 173.3 65.2C173.8 64.2 175.1 60.9 176.2 57.9C177.5 54.2 178.2 49.8 178.2 44.4C178.3 39.7 177.6 34.1 176.7 30.9C175.7 27.9 173.5 23.2 171.7 20.4C169.9 17.7 165.9 13.7 162.9 11.4C159.7 9.1 154.2 6.3 149.9 4.9C143.9 3 140.2 2.5 131.7 2.5C125.7 2.4 120.9 2.1 120.9 1.6C120.9 1.2 122.1 0.7 123.6 0.5C125.2 0.4 131 0.1 136.6 0H136.7ZM333.5 0.1C337.9 0.1 344.9 0.7 349 1.5C353.1 2.3 359.2 4.3 362.5 5.8C366 7.5 370.3 10.7 372.9 13.6C375.4 16.2 378.3 20.4 379.3 22.9C380.8 26.4 381.2 29.1 380.8 34.9C380.6 40.2 379.7 44 377.9 47.9C376.5 50.9 372.5 56.5 362.5 67L342 66.9L354 56.9C362 50.2333 366.9 45.3 368.7 42.1C371.1 38.1 371.5 36.3 371.5 29.9C371.4 24.2 370.9 21.4 369.3 18.4C368.1 16.2 365.7 13 363.8 11.2C362 9.4 358.5 7.1 356 6C353.5 4.9 349 3.5 346 2.9C343 2.2 337.6 1.8 334 1.8C330.4 1.9 324.8 2.6 321.5 3.5C318.2 4.3 313.2 6.3 310.5 7.9C307.7 9.5 303.7 12.6 301.4 14.6C299.2 16.7 296 20.2 294.3 22.4C292.6 24.6 289.8 29.3 288 32.9C286.2 36.5 283.7 42.3 282.5 45.9C281.3 49.5 279.7 55.7 277.5 66.9H270.7C266.9 66.9 264 66.5 264 65.9C264 65.3 264.9 61.4 265.9 57.1C267 52.9 269.2 46.5 270.8 42.9C272.3 39.3 275.5 33.7 277.7 30.4C279.9 27.1 284.9 21.4 288.9 17.6C293.8 13 298.6 9.6 304.2 6.9C308.8 4.7 315.4 2.2 319 1.5C322.6 0.7 329.1 0.1 333.5 0.1ZM117.2 1C117.7 1 118 1.3 118 1.9C118 2.5 116.8 3.1 115.2 3.4C113.7 3.7 110.1 4.6 102 6.9V66.9H89V55.1C88.9 48.7 88.5 37.3 88.1 29.9C87.5 19.5 86.8 15.3 85.1 11.6C83.5 7.9 82.2 6.6 79.5 5.6C77.6 5 76 4.1 76 3.6C76 3.2 82.4 2.9 90.2 2.8C98.1 2.7 107.2 2.3 110.5 1.9C113.8 1.5 116.8 1.1 117.2 1ZM0 76.9H5.2C9 76.8 11.3 77.4 13.2 78.9C15.1 80.2 16 81.8 16 83.6C16.1 85.2 15.2 87.5 14.1 88.9C12.3 91.1 12.2 91.6 13.5 93.6C14.3 94.9 14.9 96.4 14.7 97C14.6 97.7 13.3 96.5 11.7 94.5C9.5 91.6 8.4 90.9 5.5 90.9C2.2 90.9 2 91.1 2 94.4C2 96.4 1.6 97.7 1 97.4C0.4 97.1 0 92.6 0 86.9V76.9ZM2 88.9C11 88.9 12.2 88.5 13 86.9C13.5 85.8 14 84.2 14 83.4C14 82.6 13.3 81.2 12.5 80.4C11.6 79.5 9.2 78.9 6.5 78.9H2V88.9ZM54.5 76.9C58.2 76.9 59.6 77.5 62 79.9C64.4 82.3 65 83.7 65 87.4C65 90.9 64.4 92.5 62.5 94.4C61.1 95.8 58.8 97.2 57.2 97.5C55.7 97.9 53 97.8 51.1 97.3C49.2 96.8 46.7 95.1 45.6 93.6C44.3 91.8 43.5 89.3 43.5 86.7C43.5 83.4 44.1 82.2 46.8 79.8C49.3 77.5 51 76.9 54.5 76.9ZM47 81.4C46.7 81.2 46.4 83.5 46.2 86.5C46 91.4 46.3 92.1 48.7 93.9C50.3 95.1 53 96 54.8 95.9C57 95.9 58.9 95 60.5 93.4C62.2 91.7 63 89.8 63 87.4C63 85 62.2 83.1 60.5 81.4C58.9 79.8 56.9 78.9 54.7 78.9C53 78.9 50.6 79.5 49.5 80.4C48.4 81.2 47.3 81.7 47 81.4ZM93.5 77.9C94.4 78.7 96.3 81.3 97.6 83.6C98.9 86 100.2 87.9 100.5 87.9C100.8 87.9 102.6 85.3 104.7 82.1C106.7 79 108.5 77 108.7 77.6C108.8 78.3 107.5 81.3 105.6 84.1C103.6 87.3 102.1 91 101.8 93.4C101.7 95.6 101 97.4 100.5 97.4C99.9 97.4 99.3 95.7 99 93.6C98.8 91.5 97.4 87.6 96 85.1C94.5 82.5 93 79.5 92.6 78.4C91.9 76.6 92 76.5 93.5 77.9ZM144.9 77.2C145.6 77.3 148.2 81.7 150.6 86.9C152.9 92.1 154.9 96.7 154.9 97.1C155 97.6 154.7 97.9 154.2 97.9C153.8 98 152.8 96.6 152 94.9C150.6 92 150.2 91.8 144.7 91.9C139.2 91.9 139 92 137.9 95.1C137.2 97.3 136.5 98.1 135.8 97.4C135.2 96.8 136.4 92.9 139.2 86.7C141.9 80.5 144 77 144.9 77.2ZM140.6 90.1C140.8 90.6 142.8 90.9 145 90.9C147.9 90.9 149 90.5 149 89.4C149 88.6 148.2 86.3 147.2 84.4C146.3 82.4 145.1 80.9 144.7 80.9C144.3 80.9 143.1 82.8 142.1 85.1C141.1 87.5 140.4 89.7 140.6 90.1ZM264.6 76.9C266.8 76.9 269.4 77.5 270.5 78.4C271.6 79.2 272.1 79.8 271.5 79.8C270.9 79.8 268.6 79.5 266.2 79.1C262.2 78.5 261.6 78.6 258.9 81.6C257.3 83.4 256 86 256 87.4C256 88.8 257.3 91.2 259 92.9C261.2 95.1 262.9 95.9 265.5 95.9C267.4 95.9 269.2 95.5 269.5 94.9C269.8 94.3 270.6 94.2 271.2 94.6C272.2 95 271.9 95.6 270.5 96.6C269.4 97.3 266.8 97.9 264.7 97.9C262.1 97.9 260.1 97.1 257.9 95.1C255.9 93.3 254.7 91.1 254.2 88.3C253.6 84.4 253.8 83.9 257.1 80.5C260.1 77.6 261.6 76.9 264.6 76.9ZM311.2 77C313.3 76.9 315.2 77.3 315.5 77.9C315.8 78.5 314.2 78.9 311.5 78.9C307.9 78.9 306.4 79.5 304.5 81.4C302.8 83.1 302 85 302 87.4C302 89.8 302.8 91.7 304.5 93.4C306.2 95.1 308.1 95.9 310.5 95.9C312.7 95.9 315 95.1 316.6 93.6C318.4 92 319.2 90.4 319.2 87.9C319.2 86 319 83.9 318.8 83.3C318.7 82.6 318.9 82.1 319.5 82C320.1 82 320.8 83.2 321.2 84.7C321.6 86.2 321.5 88.9 321 90.6C320.4 92.4 318.8 94.8 317.2 95.9C315.7 97.1 313 98 311.2 97.9C309.5 97.9 306.6 97.2 305 96.4C303.4 95.6 301.6 94 301 92.9C300.4 91.8 300 89.2 300 87.1C300 85.1 300.7 82.4 301.6 81.1C302.5 79.8 304.2 78.4 305.4 77.9C306.5 77.4 309.2 77 311.2 77ZM367.3 77.7C367.8 78.1 368 81.9 367.8 86.2C367.5 93.2 367.2 94.3 365 96C363.6 97.1 361 98 359 98C356.9 97.9 354.6 97.1 353.2 95.9C351.4 94.3 351 92.8 350.9 87.6C350.9 84.2 350.7 80.6 350.4 79.6C350.2 78.6 350.6 77.9 351.5 77.9C352.7 77.9 353 79.4 353 85.4C353 91.3 353.4 93.2 354.7 94.5C355.9 95.5 357.8 96 360 95.7C362.5 95.5 363.8 94.7 364.7 92.9C365.3 91.5 366 87.4 366.2 83.7C366.4 80 366.9 77.3 367.3 77.7ZM404.7 76.9C409 76.9 410.5 77.4 412.5 79.4C413.9 80.8 415 83 415 84.4C415 85.8 414.1 87.8 413 88.9C411.9 90 411 91.2 411 91.6C410.9 92.1 411.6 93 412.5 93.6C413.3 94.3 413.8 95.3 413.5 95.9C413.2 96.5 413.6 97.1 414.2 97.3C415.067 97.5667 415 97.7333 414 97.8C413.2 97.8 411.6 96.4 410.4 94.6C409 92.4 407.4 91.2 405.1 90.9C403.3 90.6 401.7 90.6 401.4 90.9C401.2 91.2 401 92.6 401 94.1C401 95.9 400.5 96.9 399.5 96.9C398.3 96.9 398 95.1 397.8 87.6C397.7 82.4 398 77.9 398.5 77.6C399 77.2 401.7 76.9 404.7 76.9ZM401 88.9C408 88.9 410.5 88.3 411.4 87.4C412.3 86.6 413 85.1 413 84.1C413.1 83.2 412.3 81.6 411.3 80.7C410.2 79.6 407.9 78.9 405.2 78.9H401V88.9ZM449 76.9C453.7 76.9 457 77.3 457 77.9C457 78.5 455.4 78.9 450 78.9V87.9C450 93.2 449.6 96.9 449 96.9C448.4 96.9 448 93.2 448 78.9H444.5C442.6 78.9 441 78.5 441 77.9C441 77.3 444.3 76.9 449 76.9ZM184 77.9C184.6 77.9 185 81.6 185 95.9H190.5C193.8 95.9 195.8 96.3 195.5 96.9C195.2 97.5 192.3 97.9 183 97.9V87.9C183 81.9 183.4 77.9 184 77.9ZM102 108.9L102.4 127.1C102.6 137.8 103.3 147.1 104 149.4C104.7 151.6 106.6 154.6 108.1 156.1C109.7 157.7 112.1 158.9 113.5 158.9C114.9 158.9 116 159.3 116 159.9C116 160.5 108.3 160.9 95 160.9C81.7 160.9 74 160.5 74 159.9C74 159.3 75.1 158.9 76.5 158.9C77.9 158.9 80.1 158.1 81.5 157.1C82.9 156.2 84.7 153.8 85.4 151.9C86.2 150 87 146.6 87.4 144.4C87.7 142.2 88.2 133.5 88.5 125.1C88.8 116.8 89 109.7 89 109.4C89 109.1 91.9 108.9 102 108.9ZM155 108.9L159.6 116.1C162.2 120.1 166.6 127 169.5 131.4C172.4 135.8 177 142.1 179.7 145.4C182.5 148.7 186.9 152.9 189.6 154.6C192.3 156.4 196.2 158.2 198.3 158.6C200.3 159.1 202 159.7 202 160.1C202 160.6 195.9 160.9 175 160.9L171.5 157.4C169.6 155.5 161.5 144 153.5 131.9C145.5 119.8 139 109.7 139 109.4C139 109.1 142.6 108.9 155 108.9ZM280 108.9L282.1 115.6C283.3 119.4 285.7 125.3 287.5 128.9C289.3 132.5 292.9 138.2 295.4 141.6C297.9 145.1 302.4 149.7 305.2 151.8C308.1 154 313.2 157 316.5 158.5C321.3 160.7 324.3 161.4 331.5 161.7C337.8 162 342.4 161.6 347 160.4C350.6 159.5 356.2 157.3 359.4 155.6C362.6 153.8 367.5 149.9 370.3 146.9C373 143.9 375.8 140.4 376.4 139.1C377 137.9 378.1 136.9 378.7 136.9C379.7 136.9 380 139.6 380 156.9L374.2 158.5C371.1 159.4 365.1 160.8 361 161.7C356.1 162.7 347.8 163.3 337 163.3C321.4 163.4 320.1 163.2 312.7 160.6C308.5 159.1 302.4 156.3 299.2 154.3C296.1 152.3 291.1 148.4 288.2 145.6C285.2 142.7 280.7 137.5 278.2 133.9C275.6 130.3 272.1 124 270.3 119.9C268.5 115.8 267 111.6 267 110.6C267 109.2 268 108.9 280 108.9Z" fill="white"/>
</svg>
